<?xml version="1.0" encoding="utf-8"?>
<!-- Generator: Adobe Illustrator 27.5.0, SVG Export Plug-In . SVG Version: 6.00 Build 0)  -->
<svg version="1.1" id="Layer_1" xmlns="http://www.w3.org/2000/svg" xmlns:xlink="http://www.w3.org/1999/xlink" x="0px" y="0px"
	 viewBox="0 0 618.019 578.252" style="enable-background:new 0 0 618.019 578.252;" xml:space="preserve">
<path d="M585.684,164.218h-47.242l16.049-91.007c0.428-2.619-1.286-5.096-3.858-5.524L362.522,34.54l-7.906-30.955
	c-0.619-2.572-3.239-4.096-5.762-3.429L92.357,65.495c-1.238,0.333-2.286,1.096-2.906,2.191c-0.666,1.095-0.857,2.381-0.523,3.619
	l23.668,92.912h-8.811c-15.048,0-27.812,10.382-31.288,24.383c-12.048,0.476-22.716,5.334-29.383,13.525
	c-6.334,7.668-8.667,17.573-6.62,27.86l2.429,12.096h-7.572c-10.382,0-19.621,4-25.383,11.001
	c-5.143,6.239-7.048,14.335-5.381,22.716l53.909,270.546c3.476,17.573,22.288,31.907,41.908,31.907h7.381h481.897h0.953
	c10.382,0,19.668-4.048,25.382-11.049c4.43-5.429,6.477-12.096,5.906-19.24c0.095-0.667,0.095-1.334,0.095-2.048V196.554
	C618.019,178.743,603.495,164.218,585.684,164.218z M585.684,173.742c12.573,0,22.811,10.239,22.811,22.811v303.263l-45.003-225.876
	c-3.333-16.906-20.049-30.383-38.812-31.717l12.096-68.482H585.684z M544.251,76.21l-15.525,88.007l-1.666,9.525l-12.049,68.339
	h-22.526v-68.339v-9.525v-80.15c0-2.667-2.143-4.762-4.762-4.762h-113.82l-8.81-34.669L544.251,76.21z M227.797,173.742v-9.525
	V88.83h45.48h9.668h83.578h9.81h106.629v75.387v9.525v68.339h-67.577h-9.81H263.133l-2.762-13.953c-0.286-1.524-0.715-3-1.191-4.477
	c-1.572-4.858-4.048-9.429-7.286-13.572c-6.001-7.763-14.478-14.001-24.098-17.764V173.742z M99.31,73.543l184.968-47.147
	l13.191-3.334l49.099-12.525l5.667,22.192l2.572,10.096l9.286,36.479h-79.483h-9.667h-51.909c-2.619,0-4.762,2.095-4.762,4.762
	v80.15v9.525v15.811c-3.286-0.667-6.714-1-10.096-1h-79.578l-3.762-14.811l-2.429-9.525L99.31,73.543z M103.786,173.742h11.24
	l3.762,14.811H82.451C85.69,179.933,94.024,173.742,103.786,173.742z M96.405,568.727c-7.477,0-14.906-2.715-20.859-7.143
	c-6.001-4.382-10.381-10.477-11.715-17.097L9.922,273.941c-1.095-5.524,0.143-10.811,3.429-14.858
	c3.905-4.762,10.477-7.477,18.001-7.477h13.335c1.429,0,2.81-0.667,3.714-1.762c0.905-1.095,1.238-2.524,0.953-3.953l-3.524-17.763
	c-1.476-7.429,0.19-14.525,4.667-20.002c4.715-5.715,12.239-9.287,20.954-9.905c1-0.095,2-0.143,3-0.143h6.524h40.241h9.81h77.15
	c3.429,0,6.81,0.429,10.096,1.191s6.524,1.905,9.525,3.381c9.858,4.619,17.906,12.572,21.526,21.859
	c0.809,1.762,1.334,3.619,1.714,5.477l3.524,17.763c0.048,0.286,0.143,0.524,0.238,0.762v0.047c0.714,1.81,2.476,3.048,4.429,3.048
	h148.774h9.81h65.148h9.525h20.858h8.191c0.477,0,1,0,1.477,0.095c14.811,0.619,28.574,11.191,31.146,24.097l53.91,270.546
	c0.142,0.714,0.238,1.429,0.285,2.143c-1.191,10.62-9.715,19.049-20.335,20.144c-0.19,0.048-0.428,0.095-0.667,0.048
	c-0.524,0-1.095,0.048-1.667,0.048H96.405z"/>
</svg>
