<svg xmlns="http://www.w3.org/2000/svg" viewBox="0 0 500 500" xml:space="preserve"><path style="fill:#ebebeb" d="m83.948 399.995-10.627-7.312s-6.139 8.923-15.522 2.702c-4.873-3.231-5.199-8.103-4.551-11.218.753-3.617 3.31-6.57 6.679-8.086 3.847-1.732 9.656-1.715 15.949 4.474l16.487-23.961-10.508-7.23-9.658 14.036s-17.359-6.331-28.534 9.911c-10.692 15.54.76 28.737 6.725 32.842 4.562 3.138 20.86 12.728 33.56-6.158"/><path transform="rotate(-145.471 93.884 343.043)" style="fill:#ebebeb" d="M87.411 336.985h12.945v12.09H87.411z"/><path style="fill:#ebebeb" d="m129.259 429.389 5.643-1.488s-1.25-4.738 3.652-6.122c2.546-.719 4.314.607 5.191 1.748 1.019 1.325 1.277 3.074.804 4.677-.541 1.831-2.26 3.818-6.24 4.151l3.356 12.724 5.58-1.472-1.966-7.453s7.292-4.087 5.017-12.712c-2.177-8.252-10.082-8.216-13.25-7.381-2.423.638-10.52 3.401-7.787 13.328"/><path transform="rotate(-14.783 145.805 449.527)" style="fill:#ebebeb" d="M142.941 446.866h5.857v5.47h-5.857z"/><path style="fill:#f5f5f5" d="M222.996 73.071a37.5 37.5 0 0 1 9.143-3.974l1.883-9.05 15.291-.268 2.201 8.978a37.5 37.5 0 0 1 9.278 3.65l7.728-5.066 11.002 10.623-4.79 7.9a37.4 37.4 0 0 1 3.973 9.146l9.049 1.883.269 15.291-8.978 2.201a37.4 37.4 0 0 1-3.65 9.277l5.065 7.729-10.622 11.002-7.901-4.79a37.5 37.5 0 0 1-9.145 3.973l-1.884 9.05-15.29.268-2.201-8.979a37.5 37.5 0 0 1-9.277-3.65l-7.728 5.066-11.002-10.623 4.79-7.9a37.5 37.5 0 0 1-3.974-9.145l-9.05-1.883-.268-15.291 8.978-2.201a37.5 37.5 0 0 1 3.65-9.277l-5.065-7.728 10.622-11.002zm8.151 20.369c-6.294 6.519-6.111 16.905.408 23.198s16.905 6.111 23.198-.408c6.293-6.518 6.111-16.905-.408-23.198s-16.905-6.11-23.198.408"/><path style="fill:#ebebeb" d="M158.96 41.195a21.6 21.6 0 0 1 5.266-2.289l1.085-5.213 8.807-.154 1.267 5.171a21.6 21.6 0 0 1 5.344 2.102l4.451-2.918 6.337 6.119-2.759 4.55a21.6 21.6 0 0 1 2.289 5.267l5.212 1.085.155 8.807-5.171 1.268a21.6 21.6 0 0 1-2.102 5.343l2.917 4.451-6.118 6.337-4.551-2.759a21.5 21.5 0 0 1-5.267 2.288l-1.085 5.213-8.807.155-1.268-5.171a21.6 21.6 0 0 1-5.343-2.102l-4.451 2.918-6.337-6.118 2.759-4.55a21.6 21.6 0 0 1-2.289-5.267l-5.212-1.085-.155-8.807 5.171-1.268a21.6 21.6 0 0 1 2.102-5.343l-2.917-4.451 6.118-6.337zm4.695 11.732a9.45 9.45 0 0 0 .235 13.361c3.755 3.625 9.737 3.52 13.361-.235s3.52-9.737-.235-13.361-9.737-3.519-13.361.235m276.411 151.785a21.6 21.6 0 0 1 5.266-2.289l1.085-5.213 8.807-.155 1.267 5.171a21.6 21.6 0 0 1 5.344 2.102l4.451-2.918 6.337 6.119-2.759 4.55a21.6 21.6 0 0 1 2.289 5.268l5.212 1.085.155 8.807-5.171 1.268a21.6 21.6 0 0 1-2.102 5.343l2.917 4.451-6.118 6.337-4.551-2.759a21.5 21.5 0 0 1-5.267 2.288l-1.085 5.213-8.807.154-1.268-5.171a21.6 21.6 0 0 1-5.343-2.102l-4.451 2.918-6.337-6.118 2.759-4.55a21.6 21.6 0 0 1-2.289-5.267l-5.212-1.085-.155-8.807 5.171-1.268a21.6 21.6 0 0 1 2.102-5.343l-2.917-4.451 6.118-6.337zm4.695 11.732a9.45 9.45 0 0 0 .235 13.361c3.754 3.625 9.737 3.52 13.361-.235s3.52-9.737-.235-13.361-9.736-3.519-13.361.235"/><path style="fill:#263238" d="M463.779 465.311c0 .144-94.824.26-211.769.26-116.986 0-211.79-.117-211.79-.26s94.804-.26 211.79-.26c116.945 0 211.769.117 211.769.26"/><path style="fill:#455a64" d="M417.656 464.585 275.64 464.5c-17.08-.009-30.921-13.861-30.917-30.941l.07-356.036c.003-17.09 13.863-30.939 30.953-30.93l142.016.083c17.08.01 30.92 13.861 30.917 30.942l-.07 356.037c-.003 17.091-13.863 30.94-30.953 30.93"/><path style="fill:#fff" d="m417.612 59.27-27.534-.016c-3.692-.002-6.687 3.126-6.687 6.986l-.002 4.994c0 3.86-2.995 6.988-6.687 6.986l-53.671-.032c-3.692-.002-6.685-3.133-6.685-6.993l.001-4.994c0-3.86-2.993-6.992-6.685-6.993l-9.684-.006-24.099-.014c-11.969-.007-21.675 9.693-21.678 21.661l-.068 347.517c-.003 11.964 9.69 21.664 21.653 21.671l141.732.083c11.968.007 21.675-9.692 21.678-21.661l.068-347.518c.002-11.964-9.69-21.664-21.652-21.671"/><path style="fill:#ebebeb" d="M439.254 132.314V80.539c-.212-11.777-9.815-21.262-21.642-21.269l-27.535-.016c-3.692-.002-6.687 3.126-6.687 6.985l-.002 4.995c0 3.86-2.995 6.988-6.687 6.986l-53.671-.032c-3.692-.002-6.685-3.133-6.685-6.993l.001-4.995c0-3.86-2.993-6.991-6.685-6.993l-9.684-.006-24.099-.014c-11.969-.007-21.676 9.693-21.678 21.661l-.01 51.617h185.063z"/><ellipse style="fill:#e0e0e0" cx="291.937" cy="180.151" rx="22.43" ry="22.383"/><path style="fill:#455a64" d="m281.464 185.752 5.871-.498 14.344 2.416 1.693 10.791-.24 1.255c-6.935 3.849-14.692 3.754-21.262.489z"/><path style="fill:#455a64" d="M298.612 187.497s4.518-.894 7.439 3.27c1.788 2.548 2.665 4.237 2.665 4.237-2.332 2.536-4.231 4.467-7.476 5.593zm-17.148-1.745s-3.881.475-5.388 3.783c-1.507 3.309-1.849 4.349-1.849 4.349 2.009 2.414 4.56 5.272 7.689 6.344 0 0 .714-8.335.809-10.693.103-2.583.204-3.857-1.261-3.783"/><path style="fill:#263238" d="M285.017 164.552c2.096-2.556 4.911-4.028 8.221-4.083 1.867-.031 2.64.356 3.985.718s2.558 1.082 3.36 2.218c.953 1.349 1.753 2.861 1.933 4.502.185 1.686.37 3.382.243 5.073s-.588 3.394-1.586 4.766l-4.311.747c-2.381.081-4.795.159-7.115-.383s-4.574-1.788-5.816-3.816c-1.727-2.818-1.01-7.186 1.086-9.742"/><path style="fill:#263238" d="M280.838 177.042c.107-.971.617-1.924 1.46-2.421s2.02-.445 2.722.235l.677.806c1.062.451 1.729 1.656 1.601 2.8-.128 1.145-1.01 2.154-2.115 2.49-1.104.336-2.37.011-3.214-.775s-1.257-1.99-1.131-3.135"/><path style="fill:#455a64" d="M281.693 179.943c.031-.015-.268-.29-.232-.856.036-.551.437-1.273.987-1.934a5.8 5.8 0 0 1 1.728-1.382c.505-.271.852-.369.842-.405-.004-.021-.37.027-.908.271a5.2 5.2 0 0 0-1.823 1.38 5 5 0 0 0-.697 1.058c-.173.349-.281.702-.278 1.008-.001.306.098.544.193.682.097.139.18.187.188.178"/><path style="fill:#ffbe9d" d="m296.822 186.727-.023-3.992s3.516-.386 4.487-4.883c.483-2.236.573-5.941.548-8.975-.022-2.731-2.352-6.449-5.731-6.461l-1.501-.174-5.748 2.28a1.6 1.6 0 0 0-1.519 1.54l-.173 19.205 2.633 3.69c2.183 3.063 7.009 1.531 7.027-2.23"/><path style="fill:#eb996e" d="M294.527 176.801a.95.95 0 0 1 .332-.59.98.98 0 0 1 1.189-.068c.36.248.567.757.499 1.23a1.2 1.2 0 0 1-.854.494q-.08.008-.16.005a1.07 1.07 0 0 1-.722-.285.95.95 0 0 1-.284-.786"/><path style="fill:#263238" d="M299.761 172.012a.58.58 0 0 1-.594.556.557.557 0 0 1-.572-.557.584.584 0 0 1 .594-.557.56.56 0 0 1 .572.558m.954-1.45c-.076.072-.5-.278-1.128-.311-.626-.042-1.104.255-1.168.175-.032-.036.05-.169.258-.303.205-.134.55-.257.94-.234.391.024.711.185.892.342.186.159.244.299.206.331m-3.942 4.743c-.001-.036.393-.082 1.029-.128.161-.008.315-.031.348-.139.044-.114-.013-.289-.081-.48l-.407-1.243c-.562-1.769-.96-3.22-.889-3.242.072-.022.586 1.394 1.148 3.163l.386 1.249c.051.185.143.397.049.632a.4.4 0 0 1-.276.219c-.104.026-.195.022-.274.023-.638 0-1.033-.019-1.033-.054"/><path style="fill:#eb996e" d="M296.799 182.736s-3.069.029-5.999-1.954c0 0 1.449 3.233 6.022 3.057z"/><path style="fill:#263238" d="M294.903 175.636c.102 0 .066.679.623 1.193.555.516 1.285.479 1.285.574.007.043-.169.123-.476.115a1.7 1.7 0 0 1-1.075-.441 1.47 1.47 0 0 1-.479-.998c-.01-.285.076-.449.122-.443m5.688-7.433c-.114.147-.589.019-1.152.035-.564-.002-1.037.138-1.153-.007-.051-.07.018-.216.221-.359.2-.143.539-.266.927-.271.388-.004.728.111.93.249.205.138.277.281.227.353m-7.709 3.767a.584.584 0 0 0 .553.598.56.56 0 0 0 .611-.515.584.584 0 0 0-.552-.598.56.56 0 0 0-.612.515m-.763-1.632c.071.077.519-.242 1.147-.229.628.003 1.083.334 1.152.258.034-.033-.038-.172-.235-.321a1.6 1.6 0 0 0-.921-.301 1.54 1.54 0 0 0-.915.277c-.195.145-.263.281-.228.316m-.361-1.346c.121.144.608.005 1.191.008.583-.015 1.074.114 1.191-.032.051-.072-.024-.215-.238-.354-.21-.138-.564-.254-.964-.25-.401.005-.75.127-.955.27-.208.143-.278.288-.225.358"/><path style="fill:#ffbe9d" d="M288.115 173.686c.018-.338-.33-1.156-.661-1.226-.885-.188-2.498-.204-2.637 2.057-.191 3.091 2.959 2.645 2.97 2.556.008-.069.267-2.221.328-3.387"/><path style="fill:#eb996e" d="M287.001 175.891c-.013-.011-.056.035-.15.071a.54.54 0 0 1-.404-.016c-.32-.14-.564-.675-.544-1.234.009-.282.085-.546.199-.762.109-.22.265-.369.432-.388a.275.275 0 0 1 .309.167c.036.089.013.15.029.156.008.008.07-.048.053-.177a.35.35 0 0 0-.11-.201.4.4 0 0 0-.294-.097c-.24.002-.468.208-.593.445-.138.237-.23.534-.24.85-.019.624.265 1.227.705 1.383.214.07.4.016.499-.052.099-.07.12-.138.109-.145"/><path style="fill:#263238" d="m287.327 172.468.787.815c3.399-3.247 10.042-11.376 9.671-10.891 0 0-2.328-.956-4.856-.526s-7.322 1.692-7.248 4.667 1.646 5.935 1.646 5.935"/><path style="fill:#455a64" d="M282.826 171.786a1 1 0 0 1 .047-.179c.037-.115.104-.283.211-.487.216-.407.628-.958 1.295-1.454.657-.509 1.569-.925 2.607-1.251 1.036-.337 2.205-.598 3.351-1.09a15.2 15.2 0 0 0 3.061-1.711 15.8 15.8 0 0 0 3.409-3.364l.311-.426a.8.8 0 0 1 .117-.144.8.8 0 0 1-.09.161c-.065.102-.156.255-.287.444-.262.378-.66.913-1.218 1.52a15 15 0 0 1-2.156 1.926 14.8 14.8 0 0 1-3.086 1.739c-1.162.497-2.338.756-3.368 1.083-1.034.317-1.931.714-2.584 1.202a4.7 4.7 0 0 0-1.308 1.394c-.227.396-.296.643-.312.637"/><path style="fill:#455a64" d="M283.727 172.273s-.031-.253.12-.676c.144-.419.511-.989 1.164-1.456.647-.482 1.57-.78 2.585-1.011 1.019-.225 2.125-.511 3.212-1.017a13.6 13.6 0 0 0 4.827-3.69c.509-.598.85-1.137 1.095-1.502l.263-.433a1 1 0 0 1 .101-.146 1 1 0 0 1-.073.161l-.238.449c-.229.376-.559.928-1.061 1.541a13.4 13.4 0 0 1-4.848 3.763c-1.098.512-2.229.8-3.245 1.015-1.013.223-1.918.504-2.553.96-.644.443-1.013.984-1.171 1.386-.165.407-.156.659-.178.656"/><path style="fill:#263238" d="M281.916 200.206c-.057 0-.103-1.324-.103-2.956 0-1.633.046-2.956.103-2.956s.104 1.323.104 2.956c-.001 1.632-.047 2.956-.104 2.956m21.225-.412c-.031-.003-.002-.405.035-1.05.03-.645.071-1.54-.087-2.506-.163-.965-.489-1.803-.72-2.408-.239-.603-.39-.977-.362-.99.024-.01.223.342.497.935.267.594.621 1.438.789 2.431.162.994.095 1.905.028 2.55-.074.646-.154 1.04-.18 1.038"/><path style="fill:#ebebeb" d="M411.076 208.568h-76.443a6.873 6.873 0 0 1-6.873-6.873v-32.099l-8.427-7.481h91.743a6.873 6.873 0 0 1 6.873 6.873v32.707a6.873 6.873 0 0 1-6.873 6.873"/><path style="fill:#e0e0e0" d="M405.836 213.769c0 .144-3.651.26-8.154.26-4.505 0-8.155-.117-8.155-.26s3.65-.26 8.155-.26c4.503-.001 8.154.116 8.154.26"/><path style="fill:#1968FF" d="M409.211 214.411c-.087-.011-.134-.028-.181-.077l-1.577-1.652a.25.25 0 1 1 .361-.346l1.399 1.465 3.065-3.119a.25.25 0 0 1 .354-.003.25.25 0 0 1 .004.354l-3.247 3.303a.25.25 0 0 1-.178.075m2.253-.052h-.006l-.29-.007a.25.25 0 0 1-.244-.256c.004-.138.136-.244.256-.244l.182.005 3.171-3.227a.25.25 0 0 1 .357.351l-3.247 3.304a.25.25 0 0 1-.179.074"/><path style="fill:#e0e0e0" d="M405.836 339.44c0 .144-3.651.26-8.154.26-4.505 0-8.155-.117-8.155-.26s3.65-.26 8.155-.26c4.503-.001 8.154.116 8.154.26"/><path style="fill:1968FF" d="M409.211 340.081h-.002a.25.25 0 0 1-.179-.077l-1.577-1.651a.25.25 0 1 1 .361-.346l1.399 1.465 3.065-3.119a.25.25 0 1 1 .358.35l-3.247 3.304a.25.25 0 0 1-.178.074m2.253-.051h-.007l-.29-.008a.25.25 0 0 1-.243-.257c.004-.138.107-.269.257-.243l.182.005 3.17-3.226c.099-.1.257-.1.353-.004a.25.25 0 0 1 .004.353l-3.247 3.304a.25.25 0 0 1-.179.076"/><path style="fill:#fff" d="M410.098 171.307c0 .144-16.69.26-37.273.26-20.59 0-37.276-.117-37.276-.26s16.686-.26 37.276-.26c20.583 0 37.273.116 37.273.26m0 5.477c0 .144-16.69.26-37.273.26-20.59 0-37.276-.117-37.276-.26s16.686-.26 37.276-.26c20.583-.001 37.273.116 37.273.26m0 5.476c0 .144-16.69.26-37.273.26-20.59 0-37.276-.117-37.276-.26s16.686-.26 37.276-.26c20.583 0 37.273.116 37.273.26"/><ellipse style="fill:#e0e0e0" cx="291.937" cy="319.717" rx="22.43" ry="22.383"/><path style="fill:#455a64" d="m281.464 325.318 5.871-.498 14.344 2.416 1.693 10.791-.24 1.255c-6.935 3.849-14.692 3.754-21.262.489z"/><path style="fill:#455a64" d="M298.612 327.064s4.518-.894 7.439 3.27c1.788 2.548 2.665 4.237 2.665 4.237-2.332 2.536-4.231 4.467-7.476 5.594zm-17.148-1.746s-3.881.475-5.388 3.784-1.849 4.349-1.849 4.349c2.009 2.414 4.56 5.272 7.689 6.344 0 0 .714-8.335.809-10.693.103-2.583.204-3.858-1.261-3.784"/><path style="fill:#263238" d="M285.017 304.118c2.096-2.556 4.911-4.028 8.221-4.083 1.867-.031 2.64.356 3.985.719 1.345.362 2.558 1.082 3.36 2.218.953 1.349 1.753 2.861 1.933 4.501.185 1.686.37 3.383.243 5.073s-.588 3.394-1.586 4.766l-4.311.747c-2.381.081-4.795.159-7.115-.383s-4.574-1.788-5.816-3.816c-1.727-2.817-1.01-7.185 1.086-9.742"/><path style="fill:#263238" d="M280.838 316.608c.107-.971.617-1.924 1.46-2.421s2.02-.445 2.722.235l.677.806c1.062.451 1.729 1.656 1.601 2.801s-1.01 2.154-2.115 2.49c-1.104.336-2.37.01-3.214-.775-.844-.786-1.257-1.991-1.131-3.136"/><path style="fill:#455a64" d="M281.693 319.509c.031-.015-.268-.29-.232-.856.036-.551.437-1.273.987-1.934a5.8 5.8 0 0 1 1.728-1.382c.505-.271.852-.369.842-.405-.004-.021-.37.027-.908.271a5.2 5.2 0 0 0-1.823 1.38 5 5 0 0 0-.697 1.058c-.173.349-.281.702-.278 1.008-.001.307.098.544.193.682.097.139.18.188.188.178"/><path style="fill:#ffbe9d" d="m296.842 326.66-.023-3.991s3.516-.387 4.487-4.883c.483-2.236.573-5.941.548-8.974-.022-2.731-2.352-6.449-5.731-6.461l-1.501-.174-5.748 2.28a1.6 1.6 0 0 0-1.519 1.54l-.173 19.205 2.633 3.69c2.183 3.061 7.009 1.529 7.027-2.232"/><path style="fill:#eb996e" d="M294.527 316.367a.95.95 0 0 1 .332-.59.98.98 0 0 1 1.189-.068c.36.248.567.757.499 1.23a1.2 1.2 0 0 1-1.014.499 1.07 1.07 0 0 1-.722-.285.95.95 0 0 1-.284-.786"/><path style="fill:#263238" d="M299.761 311.958a.58.58 0 0 1-.594.556.557.557 0 0 1-.572-.557.58.58 0 0 1 .594-.556c.322 0 .578.25.572.557m.954-1.449c-.076.072-.5-.278-1.128-.311-.626-.042-1.104.255-1.168.175-.032-.036.05-.169.258-.303.205-.134.55-.257.94-.234.391.024.711.185.892.342.186.158.244.299.206.331m-3.942 4.742c-.001-.036.393-.081 1.029-.128.161-.008.315-.031.348-.139.044-.114-.013-.29-.081-.48l-.407-1.243c-.562-1.769-.96-3.22-.889-3.242.072-.022.586 1.394 1.148 3.163l.386 1.249c.051.185.143.397.049.632a.4.4 0 0 1-.276.219c-.104.026-.195.022-.274.023-.638 0-1.033-.019-1.033-.054"/><path style="fill:#eb996e" d="M296.799 322.682s-3.069.029-5.999-1.954c0 0 1.449 3.233 6.022 3.058z"/><path style="fill:#263238" d="M294.903 315.583c.102 0 .066.679.623 1.193.555.516 1.285.479 1.285.574.007.043-.169.123-.476.115a1.7 1.7 0 0 1-1.075-.441 1.47 1.47 0 0 1-.479-.998c-.01-.286.076-.45.122-.443m5.688-7.434c-.114.147-.589.018-1.152.034-.564-.002-1.037.138-1.153-.007-.051-.07.018-.216.221-.359.2-.142.539-.266.927-.271.388-.004.728.111.93.249.205.139.277.283.227.354m-7.709 3.767a.583.583 0 0 0 .553.598.56.56 0 0 0 .611-.515.584.584 0 0 0-.552-.598.56.56 0 0 0-.612.515m-.763-1.632c.071.077.519-.242 1.147-.229.628.003 1.083.334 1.152.258.034-.033-.038-.172-.235-.321a1.6 1.6 0 0 0-.921-.301 1.55 1.55 0 0 0-.915.277c-.195.145-.263.282-.228.316m-.361-1.345c.121.144.608.005 1.191.008.583-.015 1.074.114 1.191-.033.051-.072-.024-.215-.238-.354-.21-.138-.564-.254-.964-.25-.401.004-.75.127-.955.27-.208.143-.278.288-.225.359"/><path style="fill:#ffbe9d" d="M288.115 313.252c.018-.338-.33-1.156-.661-1.226-.885-.188-2.498-.204-2.637 2.057-.191 3.091 2.959 2.645 2.97 2.556.008-.069.267-2.221.328-3.387"/><path style="fill:#eb996e" d="M287.001 315.458c-.013-.011-.056.034-.15.071a.54.54 0 0 1-.404-.016c-.32-.14-.564-.675-.544-1.234.009-.282.085-.546.199-.762.109-.22.265-.369.432-.388a.275.275 0 0 1 .309.167c.036.089.013.15.029.156.008.008.07-.048.053-.177a.34.34 0 0 0-.11-.201.4.4 0 0 0-.294-.097c-.24.002-.468.208-.593.445-.138.237-.23.534-.24.85-.019.624.265 1.227.705 1.383.214.07.4.016.499-.052.099-.071.12-.139.109-.145"/><path style="fill:#263238" d="m287.327 312.035.787.815c3.399-3.247 10.042-11.376 9.671-10.891 0 0-2.328-.956-4.856-.526s-7.322 1.692-7.248 4.667c.074 2.973 1.646 5.935 1.646 5.935"/><path style="fill:#455a64" d="M282.826 311.352a1 1 0 0 1 .047-.179 3 3 0 0 1 .211-.487c.216-.407.628-.958 1.295-1.454.657-.509 1.569-.925 2.607-1.251 1.036-.337 2.205-.598 3.351-1.09a15.2 15.2 0 0 0 3.061-1.711 15.8 15.8 0 0 0 3.409-3.364l.311-.426a.8.8 0 0 1 .117-.144.8.8 0 0 1-.09.161c-.065.102-.156.256-.287.445-.262.378-.66.913-1.218 1.52a15 15 0 0 1-2.156 1.926 14.8 14.8 0 0 1-3.086 1.739c-1.162.497-2.338.756-3.368 1.083-1.034.317-1.931.714-2.584 1.202a4.7 4.7 0 0 0-1.308 1.394c-.227.395-.296.642-.312.636"/><path style="fill:#455a64" d="M283.727 311.839s-.031-.253.12-.676c.144-.419.511-.989 1.164-1.456.647-.482 1.57-.78 2.585-1.011 1.019-.224 2.125-.511 3.212-1.017a13.6 13.6 0 0 0 4.827-3.69c.509-.598.85-1.137 1.095-1.501l.263-.433a1 1 0 0 1 .101-.146 1 1 0 0 1-.073.161l-.238.449c-.229.376-.559.928-1.061 1.541a13.4 13.4 0 0 1-4.848 3.763c-1.098.512-2.229.8-3.245 1.015-1.013.223-1.918.504-2.553.96-.644.443-1.013.984-1.171 1.386-.165.406-.156.658-.178.655"/><path style="fill:#263238" d="M281.916 339.772c-.057 0-.103-1.324-.103-2.956 0-1.633.046-2.956.103-2.956s.104 1.323.104 2.956c-.001 1.632-.047 2.956-.104 2.956m21.225-.412c-.031-.003-.002-.405.035-1.05.03-.645.071-1.54-.087-2.506-.163-.966-.489-1.803-.72-2.408-.239-.604-.39-.977-.362-.99.024-.01.223.342.497.935.267.594.621 1.438.789 2.43.162.994.095 1.905.028 2.55-.074.647-.154 1.042-.18 1.039"/><path style="fill:#ebebeb" d="M411.076 332.877h-76.443a6.873 6.873 0 0 1-6.873-6.873v-16.841l-8.427-7.481h91.743a6.873 6.873 0 0 1 6.873 6.873v17.449a6.874 6.874 0 0 1-6.873 6.873"/><path style="fill:#fff" d="M410.098 310.874c0 .144-16.69.26-37.273.26-20.59 0-37.276-.117-37.276-.26s16.686-.26 37.276-.26c20.583-.001 37.273.116 37.273.26m0 5.476c0 .144-16.69.26-37.273.26-20.59 0-37.276-.117-37.276-.26s16.686-.26 37.276-.26c20.583 0 37.273.116 37.273.26m0 5.476c0 .144-16.69.26-37.273.26-20.59 0-37.276-.117-37.276-.26s16.686-.26 37.276-.26c20.583 0 37.273.117 37.273.26m0-134.09c0 .144-16.69.26-37.273.26-20.59 0-37.276-.117-37.276-.26s16.686-.26 37.276-.26c20.583 0 37.273.117 37.273.26m0 5.477c0 .144-16.69.26-37.273.26-20.59 0-37.276-.117-37.276-.26s16.686-.26 37.276-.26c20.583-.001 37.273.116 37.273.26m0 6.581c0 .144-16.69.26-37.273.26-20.59 0-37.276-.117-37.276-.26s16.686-.26 37.276-.26c20.583-.001 37.273.116 37.273.26"/><path style="fill:#263238" d="M335.951 104.63c0-2.183 1.676-3.745 3.932-3.745 1.252 0 2.297.455 2.98 1.283l-1.076.993c-.486-.559-1.097-.849-1.82-.849-1.355 0-2.317.952-2.317 2.317s.962 2.317 2.317 2.317c.724 0 1.334-.29 1.82-.858l1.076.993c-.683.838-1.728 1.293-2.99 1.293-2.246.001-3.922-1.561-3.922-3.744m13.611.435v3.187h-1.613v-2.938c0-.9-.414-1.314-1.128-1.314-.776 0-1.335.476-1.335 1.5v2.752h-1.613v-7.676h1.613v2.69c.435-.435 1.056-.662 1.77-.662 1.313-.001 2.306.764 2.306 2.461m6.38.01v3.176h-1.51v-.693c-.301.507-.88.776-1.697.776-1.303 0-2.079-.725-2.079-1.687 0-.983.693-1.666 2.39-1.666h1.283c0-.693-.414-1.097-1.283-1.097-.59 0-1.2.196-1.604.517l-.579-1.128c.61-.435 1.511-.672 2.4-.672 1.697.002 2.679.788 2.679 2.474m-1.613 1.418v-.569h-1.108c-.755 0-.993.279-.993.652 0 .403.342.672.91.672.538 0 1.004-.249 1.191-.755m6.66 1.489c-.331.238-.817.352-1.314.352-1.314 0-2.079-.673-2.079-1.997v-2.286h-.858v-1.242h.858v-1.355h1.614v1.355h1.386v1.242h-1.386v2.266c0 .476.258.734.692.734.238 0 .477-.072.652-.207zm28.538 7.803c0 .144-17.043.26-38.062.26-21.026 0-38.066-.117-38.066-.26s17.039-.26 38.066-.26c21.019 0 38.062.116 38.062.26"/><circle style="fill:#263238" cx="423.257" cy="102.857" r="1.772"/><path style="fill:#263238" d="M425.029 108.023a1.772 1.772 0 1 1-3.543 0 1.772 1.772 0 0 1 3.543 0m0 5.165a1.772 1.772 0 1 1-3.543 0 1.772 1.772 0 0 1 3.543 0m-145.714-4.331a.5.5 0 0 1-.296-.097l-4.693-3.442a.5.5 0 0 1 .004-.809l4.693-3.377a.5.5 0 1 1 .584.812l-4.135 2.975 4.139 3.035a.5.5 0 0 1-.296.903"/><ellipse style="fill:#e0e0e0" cx="401.709" cy="254.625" rx="22.43" ry="22.383"/><path style="fill:#263238" d="M407.849 267.849h-11.795a1.521 1.521 0 1 1 0-3.044h11.795a1.522 1.522 0 0 1 0 3.044m-6.266-27.78h1.036v5.24h-1.036z"/><circle style="fill:#1968FF" cx="386.807" cy="257.977" r="3.045"/><circle style="fill:#1968FF" cx="417.545" cy="257.777" r="3.045"/><path style="fill:#1968FF" d="M402.554 244.212s12.38-.149 14.34 10.574-8.51 10.923-11.521 11.126c-1.365.092-4.287.102-6.864.057-5.707-.099-9.739-1.204-11.111-6.498a10 10 0 0 1-.308-1.896c-.365-5.804 3.564-13.648 15.464-13.363"/><path style="fill:#263238" d="m393.573 260.543 17.986.281a3.415 3.415 0 0 0 .107-6.827l-17.986-.281a3.413 3.413 0 1 0-.107 6.827"/><path style="fill:#fff" d="M407.826 257.092a1.096 1.096 0 1 0 2.151-.421 1.096 1.096 0 0 0-2.151.421m-12.565-.201a1.096 1.096 0 1 0 2.151-.421 1.096 1.096 0 0 0-2.151.421"/><path style="fill:#1968FF" d="M403.809 239.964a1.708 1.708 0 1 1-3.417 0 1.708 1.708 0 0 1 3.417 0"/><path style="fill:#fff" d="M404.677 256.587c.03-.005.078.085.109.262.032.177.027.446-.066.76a2.3 2.3 0 0 1-.601.975 2.18 2.18 0 0 1-1.289.611 2.17 2.17 0 0 1-1.378-.368 2.26 2.26 0 0 1-.767-.85 1.7 1.7 0 0 1-.203-.736c-.002-.18.03-.277.06-.278.078-.006.103.379.43.841.159.23.399.469.712.652.311.184.703.298 1.104.266.4-.041.764-.224 1.037-.461.275-.237.467-.516.582-.771.237-.512.192-.895.27-.903"/><path style="fill:#263238" d="M416.865 254.436c.006-.002.041.092.098.265q.046.129.093.318c.032.125.073.267.102.427.069.318.124.702.158 1.132.027.43.03.904-.012 1.4a9.5 9.5 0 0 1-.235 1.38c-.108.417-.23.786-.354 1.086-.056.153-.122.285-.175.402a4 4 0 0 1-.148.296c-.086.16-.137.247-.143.243-.006-.003.034-.096.11-.26.039-.082.086-.182.133-.301s.109-.252.161-.405c.115-.302.229-.669.332-1.083.097-.415.179-.878.225-1.368.041-.49.042-.96.019-1.386a10 10 0 0 0-.136-1.124c-.024-.16-.061-.301-.087-.427a4 4 0 0 0-.078-.32 2 2 0 0 1-.063-.275m-29.329.066c-.006-.002-.041.092-.098.265q-.046.129-.094.318c-.032.125-.073.267-.102.427a9 9 0 0 0-.158 1.132c-.027.43-.03.904.012 1.4.046.495.132.962.235 1.38.108.417.23.786.354 1.086.056.153.122.285.175.402q.08.177.148.296c.086.16.137.246.143.243s-.034-.096-.11-.26a5 5 0 0 1-.133-.301c-.048-.119-.109-.252-.161-.405a10 10 0 0 1-.332-1.083 10 10 0 0 1-.225-1.368c-.041-.49-.042-.96-.019-1.386.028-.426.076-.807.136-1.125.024-.16.061-.301.087-.427q.039-.19.078-.32c.048-.174.07-.272.064-.274"/><path style="fill:#1968FF" d="M390.212 273.844s3.674-3.594 11.37-3.594 11.628 3.594 11.628 3.594-10.72 7.244-22.998 0"/><path style="fill:#ebebeb" d="M278.969 277.445h76.443a6.873 6.873 0 0 0 6.873-6.873v-22.18l8.427-7.481h-91.743a6.873 6.873 0 0 0-6.873 6.873v22.788a6.87 6.87 0 0 0 6.873 6.873"/><path style="fill:#fff" d="M352.022 251.754c0 .144-15.744.26-35.162.26-19.424 0-35.165-.117-35.165-.26s15.741-.26 35.165-.26c19.418 0 35.162.116 35.162.26m0 5.938c0 .144-15.744.26-35.162.26-19.424 0-35.165-.116-35.165-.26s15.741-.26 35.165-.26c19.418 0 35.162.116 35.162.26m0 5.938c0 .144-15.744.26-35.162.26-19.424 0-35.165-.117-35.165-.26s15.741-.26 35.165-.26c19.418 0 35.162.116 35.162.26m0 5.938c0 .144-15.744.26-35.162.26-19.424 0-35.165-.116-35.165-.26s15.741-.26 35.165-.26c19.418 0 35.162.116 35.162.26"/><ellipse style="fill:#e0e0e0" cx="401.709" cy="378.903" rx="22.43" ry="22.383"/><path style="fill:#263238" d="M407.849 392.127h-11.795a1.521 1.521 0 1 1 0-3.044h11.795a1.522 1.522 0 0 1 0 3.044m-6.266-27.78h1.036v5.24h-1.036z"/><circle style="fill:#1968FF" cx="386.807" cy="382.255" r="3.045"/><circle style="fill:#1968FF" cx="417.545" cy="382.055" r="3.045"/><path style="fill:#1968FF" d="M402.554 368.49s12.38-.149 14.34 10.574-8.51 10.923-11.521 11.126c-1.365.092-4.287.102-6.864.057-5.707-.099-9.739-1.204-11.111-6.498a10 10 0 0 1-.308-1.896c-.365-5.804 3.564-13.648 15.464-13.363"/><path style="fill:#263238" d="m393.573 384.822 17.986.281a3.415 3.415 0 0 0 .107-6.827l-17.986-.281a3.414 3.414 0 0 0-.107 6.827"/><path style="fill:#fff" d="M407.826 381.37a1.096 1.096 0 1 0 2.151-.421 1.096 1.096 0 0 0-2.151.421m-12.565-.201a1.096 1.096 0 1 0 2.151-.421 1.096 1.096 0 0 0-2.151.421"/><path style="fill:#1968FF" d="M403.809 364.242a1.708 1.708 0 1 1-3.417 0 1.708 1.708 0 0 1 3.417 0"/><path style="fill:#fff" d="M404.677 380.865c.03-.005.078.084.109.262.032.177.027.446-.066.76a2.3 2.3 0 0 1-.601.975 2.18 2.18 0 0 1-1.289.611 2.17 2.17 0 0 1-1.378-.368 2.26 2.26 0 0 1-.767-.85 1.7 1.7 0 0 1-.203-.736c-.002-.18.03-.277.06-.278.078-.006.103.379.43.841.159.23.399.469.712.652.311.184.703.298 1.104.266.4-.041.764-.224 1.037-.461.275-.237.467-.516.582-.771.237-.512.192-.895.27-.903"/><path style="fill:#263238" d="M416.865 378.714c.006-.002.041.092.098.265q.046.129.093.318c.032.125.073.267.102.427.069.318.124.702.158 1.132.027.43.03.904-.012 1.4a9.5 9.5 0 0 1-.235 1.38c-.108.417-.23.786-.354 1.086-.056.153-.122.285-.175.402a4 4 0 0 1-.148.296c-.086.16-.137.246-.143.243s.034-.096.11-.26c.039-.082.086-.182.133-.302.048-.119.109-.252.161-.405.115-.301.229-.669.332-1.083.097-.415.179-.878.225-1.368.041-.49.042-.96.019-1.386a10 10 0 0 0-.136-1.125c-.024-.16-.061-.301-.087-.427a4 4 0 0 0-.078-.32 2 2 0 0 1-.063-.273m-29.329.066c-.006-.002-.041.092-.098.265q-.046.129-.094.318c-.032.125-.073.267-.102.427a9 9 0 0 0-.158 1.132c-.027.43-.03.904.012 1.4.046.495.132.962.235 1.38.108.417.23.786.354 1.086.056.153.122.285.175.402q.08.177.148.296c.086.16.137.247.143.243.006-.003-.034-.096-.11-.26a5 5 0 0 1-.133-.301c-.048-.119-.109-.252-.161-.405a10 10 0 0 1-.332-1.083 10 10 0 0 1-.225-1.368c-.041-.49-.042-.96-.019-1.386.028-.425.076-.807.136-1.124.024-.16.061-.301.087-.427q.039-.19.078-.32c.048-.175.07-.273.064-.275"/><path style="fill:#1968FF" d="M390.212 398.122s3.674-3.594 11.37-3.594 11.628 3.594 11.628 3.594-10.72 7.244-22.998 0"/><path style="fill:#ebebeb" d="M278.969 401.723h76.443a6.873 6.873 0 0 0 6.873-6.873v-22.18l8.427-7.481h-91.743a6.873 6.873 0 0 0-6.873 6.873v22.788a6.87 6.87 0 0 0 6.873 6.873m0 34.683h76.443a6.873 6.873 0 0 0 6.873-6.873v-7.35l8.427-7.481h-91.743a6.873 6.873 0 0 0-6.873 6.873v7.958a6.87 6.87 0 0 0 6.873 6.873"/><path style="fill:#fff" d="M352.022 376.032c0 .144-15.744.26-35.162.26-19.424 0-35.165-.117-35.165-.26s15.741-.26 35.165-.26c19.418 0 35.162.116 35.162.26m0 5.938c0 .144-15.744.26-35.162.26-19.424 0-35.165-.117-35.165-.26s15.741-.26 35.165-.26c19.418 0 35.162.116 35.162.26m0 5.938c0 .144-15.744.26-35.162.26-19.424 0-35.165-.117-35.165-.26s15.741-.26 35.165-.26c19.418 0 35.162.116 35.162.26m0 5.938c0 .144-15.744.26-35.162.26-19.424 0-35.165-.117-35.165-.26s15.741-.26 35.165-.26c19.418 0 35.162.116 35.162.26m.218 32.022c0 .144-15.579.26-34.792.26-19.22 0-34.795-.117-34.795-.26s15.575-.26 34.795-.26c19.213 0 34.792.117 34.792.26"/><path style="fill:#455a64" d="M96.44 411.392c2.708.552 5.017 2.46 6.471 4.81 1.453 2.351 2.123 5.113 2.387 7.865.51 5.323-1.335 11.195-3.638 16.022-5.185-2.895-7.601-9.347-8.621-12.697-1.613-5.296-1.311-15.844 3.401-16m12.122 36.201c-1.322-2.79-.781-6.272 1.05-8.758s4.802-4.003 7.863-4.409c1.415-.188 3.006-.1 4.046.878.972.914 1.205 2.428.844 3.713-.36 1.285-1.224 2.371-2.184 3.299-3.29 3.183-7.058 5.658-11.619 5.277"/><path style="fill:#263238" d="M106.317 464.72c-.028 0-.048-.392-.07-1.1l-.081-2.999c-.026-2.515-.135-6.102 1.03-9.853 1.142-3.737 3.211-6.749 5.132-8.433.95-.855 1.819-1.428 2.447-1.764.307-.181.567-.28.735-.362.171-.076.264-.109.27-.097.049.078-1.44.684-3.265 2.424-1.839 1.704-3.825 4.672-4.949 8.346-1.144 3.674-1.084 7.221-1.126 9.737a124 124 0 0 1-.042 3c-.024.71-.056 1.102-.081 1.101"/><path style="fill:#263238" d="M96.92 419.445c.013-.003.065.154.152.455l.363 1.323a254 254 0 0 1 1.24 4.89 471 471 0 0 1 3.656 16.238 470 470 0 0 1 3.086 16.358c.355 2.1.628 3.802.802 4.98l.192 1.358c.04.311.054.476.041.478s-.053-.158-.118-.465l-.264-1.346-.923-4.958a841 841 0 0 0-3.196-16.328 836 836 0 0 0-3.543-16.253l-1.12-4.917-.292-1.34c-.063-.307-.089-.47-.076-.473"/><path style="fill:#455a64" d="M101.656 452.359c-2.326-6.08-7.767-10.87-14.092-12.408-1.611-.391-3.618-.445-4.59.897-.974 1.345-.291 3.244.618 4.633 3.783 5.781 11.309 8.835 18.051 7.327"/><path style="fill:#263238" d="M89.316 444.732c.006-.026.366.049 1.015.209.325.077.722.174 1.168.338.445.163.971.302 1.513.556.549.237 1.158.483 1.772.828.634.309 1.271.709 1.94 1.135a22.8 22.8 0 0 1 3.931 3.319 22.4 22.4 0 0 1 3.01 4.175c.366.703.717 1.37.967 2.03.29.643.481 1.271.663 1.841.203.564.288 1.102.406 1.561.119.46.174.865.216 1.197.09.662.127 1.027.1 1.031-.086.015-.242-1.459-.983-3.704-.197-.557-.399-1.171-.698-1.799-.258-.645-.615-1.295-.983-1.982a23.3 23.3 0 0 0-2.982-4.085 24 24 0 0 0-3.846-3.286c-.653-.427-1.274-.831-1.893-1.148-.599-.353-1.193-.609-1.729-.859-2.165-.953-3.61-1.275-3.587-1.357"/><path style="fill:#fafafa" d="m121.097 151.697-3.701-11.545a39.9 39.9 0 0 0 5.937-20.996c0-22.142-17.949-40.091-40.091-40.091s-40.09 17.949-40.09 40.091c0 22.141 17.949 40.09 40.09 40.09a39.9 39.9 0 0 0 24.535-8.395l-.014.018z"/><path style="fill:#263238" d="M121.096 151.697s-.274-.006-.839-.034l-2.533-.132-9.968-.549a.111.111 0 0 1-.082-.181l.014-.018.159.158c-4.093 3.187-10.162 6.635-18.099 7.949-1.973.333-4.051.52-6.205.536-2.149-.089-4.388-.096-6.651-.53a40 40 0 0 1-13.693-4.799 40.35 40.35 0 0 1-12.004-10.531 40.5 40.5 0 0 1-7.298-15.599c-1.35-5.825-1.332-12.149.16-18.273l.59-2.296c.226-.759.532-1.495.795-2.247.297-.738.496-1.521.877-2.229l1.045-2.171c.321-.741.758-1.421 1.179-2.112l1.267-2.077 1.464-1.958.735-.982c.251-.323.544-.612.814-.92 4.406-5.012 9.91-8.939 15.933-11.169a41 41 0 0 1 18.411-2.519c6.057.576 11.745 2.583 16.606 5.476a40.5 40.5 0 0 1 11.966 10.885 40.2 40.2 0 0 1 6.344 13.213c.66 2.228.939 4.461 1.235 6.606.093 2.164.275 4.252.116 6.258a39.9 39.9 0 0 1-5.944 18.756l.011-.09 2.701 8.643.681 2.202c.148.493.213.734.213.734s-.096-.264-.263-.765l-.736-2.217-2.805-8.53a.1.1 0 0 1 .011-.09 39.96 39.96 0 0 0 5.789-18.662c.149-1.99-.042-4.059-.142-6.203-.303-2.125-.587-4.336-1.249-6.539a39.9 39.9 0 0 0-6.318-13.058 40.1 40.1 0 0 0-11.855-10.737c-4.809-2.85-10.43-4.823-16.413-5.385a40.6 40.6 0 0 0-18.178 2.503c-5.944 2.204-11.376 6.083-15.725 11.03-.267.304-.556.589-.804.908l-.725.969-1.445 1.932-1.25 2.05c-.416.682-.847 1.353-1.164 2.085l-1.033 2.143c-.377.698-.572 1.471-.866 2.2-.26.742-.564 1.468-.787 2.217l-.583 2.267c-1.477 6.043-1.5 12.291-.173 18.044a40.1 40.1 0 0 0 7.187 15.421 39.9 39.9 0 0 0 11.846 10.438 39.7 39.7 0 0 0 13.537 4.789c2.239.438 4.456.452 6.586.549a39 39 0 0 0 6.152-.506c7.875-1.268 13.92-4.651 18.017-7.787a.113.113 0 0 1 .159.159l-.014.018-.082-.182 9.881.683 2.561.184c.578.042.884.072.884.072"/><path style="fill:#263238" d="M71.943 119.143a4.073 4.073 0 1 1-8.145 0 4.073 4.073 0 0 1 8.145 0m16.298 0a4.074 4.074 0 1 1-8.147-.001 4.074 4.074 0 0 1 8.147.001m16.257-2.036a4.072 4.072 0 1 1-7.054 4.072 4.073 4.073 0 1 1 7.054-4.072"/><path style="fill:#1968FF" d="m106.116 299.04-42.166-4.404-17.793-40.49-13.86 3.616s10.244 42.785 21.694 49.414 50.619 7.834 50.619 7.834z"/><circle transform="rotate(-48.373 114.539 307.157)" style="fill:#263238" cx="114.552" cy="307.175" r="18.681"/><path style="fill:#263238" d="M114.552 325.881a18.58 18.58 0 0 1-13.227-5.479c-3.533-3.532-5.479-8.229-5.479-13.227s1.946-9.694 5.479-13.227 8.23-5.48 13.227-5.48 9.694 1.946 13.227 5.48a18.58 18.58 0 0 1 5.478 13.227c0 4.996-1.946 9.694-5.478 13.227a18.58 18.58 0 0 1-13.227 5.479m0-37.361c-4.983 0-9.668 1.94-13.192 5.464-3.523 3.523-5.464 8.208-5.464 13.191s1.94 9.668 5.464 13.191a18.53 18.53 0 0 0 13.192 5.464 18.53 18.53 0 0 0 13.191-5.464c3.524-3.523 5.464-8.208 5.464-13.191s-1.94-9.668-5.464-13.191a18.53 18.53 0 0 0-13.191-5.464"/><circle transform="rotate(-13.493 56.976 296.776)" style="fill:#263238" cx="56.947" cy="296.764" r="14.011"/><circle transform="rotate(-45.001 38.212 249.336)" style="fill:#263238" cx="38.215" cy="249.335" r="11.447"/><path style="fill:#263238" d="m46.652 251.088 9.411-7.948a2.453 2.453 0 0 0 .292-3.457l-.232-.274a2.45 2.45 0 0 0-3.457-.291l-9.411 7.948zm-2.565-10.57v-11.964a2.453 2.453 0 0 0-2.453-2.453h-.359a2.453 2.453 0 0 0-2.453 2.453v11.964c0 .195.158.354.354.354h4.558a.354.354 0 0 0 .353-.354m-5.876-.242L35.599 228.6a2.455 2.455 0 0 0-2.93-1.859l-.35.078a2.454 2.454 0 0 0-1.859 2.93l2.612 11.676a.354.354 0 0 0 .423.268l4.449-.995a.35.35 0 0 0 .267-.422m-5.763 1.61-5.982-10.361a2.45 2.45 0 0 0-3.351-.898l-.311.179a2.454 2.454 0 0 0-.898 3.352l5.982 10.361a.355.355 0 0 0 .483.13l3.948-2.279a.354.354 0 0 0 .129-.484"/><path transform="rotate(156.955 277.29 358.453)" style="fill:#1968FF" d="M270.442 311.972h13.697v92.947h-13.697z"/><circle transform="rotate(-49.729 252.936 309.113)" style="fill:#263238" cx="252.959" cy="309.124" r="18.681"/><path style="fill:#263238" d="M252.982 327.839a18.7 18.7 0 0 1-5.536-.841 18.58 18.58 0 0 1-11.025-9.133 18.58 18.58 0 0 1-1.337-14.255 18.58 18.58 0 0 1 9.134-11.024 18.58 18.58 0 0 1 14.254-1.336 18.58 18.58 0 0 1 11.024 9.133 18.58 18.58 0 0 1 1.337 14.255 18.58 18.58 0 0 1-9.134 11.024 18.6 18.6 0 0 1-8.717 2.177m-.047-37.379c-2.997 0-5.969.73-8.694 2.171a18.53 18.53 0 0 0-9.109 10.995 18.54 18.54 0 0 0 1.333 14.216 18.53 18.53 0 0 0 10.995 9.109 18.53 18.53 0 0 0 14.216-1.334 18.53 18.53 0 0 0 9.11-10.995l.023.008-.023-.008a18.54 18.54 0 0 0-1.334-14.216 18.53 18.53 0 0 0-10.996-9.109 18.7 18.7 0 0 0-5.521-.837"/><circle transform="rotate(-74.467 277.304 361.195)" style="fill:#263238" cx="277.291" cy="361.201" r="14.011"/><path style="fill:#263238" d="M309.264 401.173c-2.002-5.997-8.486-9.236-14.483-7.234s-9.236 8.486-7.234 14.483 8.486 9.236 14.483 7.234 9.235-8.486 7.234-14.483"/><path style="fill:#263238" d="m289.847 405.806-6.41 10.519a2.454 2.454 0 0 0 .818 3.372l.307.187a2.454 2.454 0 0 0 3.372-.818l6.41-10.519zm5.78 9.214 3.788 11.349a2.454 2.454 0 0 0 3.104 1.55l.341-.114a2.454 2.454 0 0 0 1.55-3.104l-3.788-11.349a.355.355 0 0 0-.448-.224l-4.324 1.443a.356.356 0 0 0-.223.449m5.65-1.631 6.174 10.248a2.453 2.453 0 0 0 3.368.835l.308-.185a2.453 2.453 0 0 0 .835-3.368l-6.174-10.248a.354.354 0 0 0-.486-.12l-3.905 2.352a.354.354 0 0 0-.12.486m4.957-3.353 8.955 7.934a2.453 2.453 0 0 0 3.463-.209l.238-.269a2.454 2.454 0 0 0-.209-3.463l-8.955-7.934a.354.354 0 0 0-.499.03l-3.023 3.412a.353.353 0 0 0 .03.499"/><path style="fill:#1968FF" d="M108.964 287.744s1.348 131.133 74.939 133.698 76.675-132.76 76.675-133.698c0 0-8.691-19.557-75.807-18.791s-75.807 18.791-75.807 18.791"/><path style="fill:#263238" d="M150.311 264.655h62.203a7.35 7.35 0 0 0 7.35-7.35v-1.076a7.35 7.35 0 0 0-7.35-7.35h-62.203a7.35 7.35 0 0 0-7.35 7.35v1.076a7.35 7.35 0 0 0 7.35 7.35"/><path transform="rotate(-180 181.427 134.47)" style="fill:#263238" d="M178.742 120.892h5.37v27.154h-5.37z"/><circle transform="rotate(-13.369 259.94 213.49)" style="fill:#1968FF" cx="259.903" cy="213.496" r="15.779"/><circle transform="rotate(-12.78 100.608 212.47)" style="fill:#1968FF" cx="100.601" cy="212.457" r="15.779"/><path style="fill:#1968FF" d="M178.295 142.159s-64.159-.771-74.316 54.799 44.102 56.608 59.707 57.661c7.077.477 22.216.526 35.575.295 29.576-.514 50.474-6.238 57.586-33.677.829-3.2 1.389-6.485 1.598-9.827 1.881-30.075-18.477-70.731-80.15-69.251"/><path style="fill:#263238" d="m224.839 226.797-93.211 1.455c-9.77.153-17.814-7.644-17.967-17.414s7.644-17.814 17.414-17.966l93.211-1.455c9.77-.153 17.814 7.644 17.966 17.414.154 9.769-7.643 17.813-17.413 17.966"/><path style="fill:#fff" d="M150.97 208.908a5.677 5.677 0 1 1-11.143-2.183 5.677 5.677 0 0 1 11.143 2.183m65.119-1.038a5.677 5.677 0 1 1-11.143-2.183 5.677 5.677 0 0 1 11.143 2.183"/><path style="fill:#263238" d="M206.719 339.822c-1.021 13.976-13.179 24.477-27.155 23.456s-24.478-13.179-23.456-27.155 13.179-24.477 27.155-23.456 24.477 13.179 23.456 27.155"/><path style="fill:#fff" d="M199.854 339.32c-.744 10.184-9.604 17.837-19.788 17.092s-17.837-9.604-17.092-19.788 9.604-17.836 19.788-17.092c10.183.745 17.836 9.604 17.092 19.788"/><path style="fill:#1968FF" d="M190.937 342.681c-.071-.043-.125-1.138-.171-3.05a356 356 0 0 1-.087-7.967l.204.366-9.513-5.548.531.008-9.599 5.394c-.26.433.35-.588.287-.482v.042l-.001.045-.001.091-.003.181-.005.362-.011.72-.023 1.427-.047 2.801-.102 5.341-.259-.464 9.398 5.741-.419-.006a352 352 0 0 1 7.055-3.704c1.706-.868 2.695-1.34 2.766-1.298s-.782.599-2.402 1.588c-1.62.988-4.012 2.412-7.01 4.144l-.205.118-.214-.125-9.513-5.548-.262-.153.003-.312.054-5.341.035-2.8.02-1.427.01-.72.005-.362.003-.181.001-.09.001-.046v-.043l.29-.486 9.631-5.337.272-.151.259.158 9.398 5.741.211.129-.007.237a355 355 0 0 1-.322 8.137c-.102 1.898-.187 2.913-.258 2.87"/><circle transform="rotate(-45.001 181.427 120.354)" style="fill:#1968FF" cx="181.427" cy="120.351" r="8.851"/><path style="fill:#fff" d="M167.292 206.29c.422.045.212 2.031 1.451 4.671.599 1.311 1.596 2.744 3.014 3.962 1.407 1.219 3.281 2.154 5.334 2.367 2.059.163 4.071-.417 5.676-1.361 1.615-.94 2.856-2.169 3.682-3.35 1.697-2.372 1.85-4.362 2.273-4.331.165.003.338.505.338 1.444.006.938-.266 2.309-1.033 3.835-.758 1.524-2.081 3.156-3.986 4.435-1.884 1.277-4.441 2.145-7.187 1.921-2.74-.277-5.096-1.594-6.718-3.191-1.642-1.603-2.647-3.447-3.117-5.083-.477-1.639-.497-3.038-.321-3.959.171-.925.431-1.387.594-1.36"/><path style="fill:#263238" d="M252.718 232.203c-.094-.054 1.056-1.8 2.163-4.951 1.136-3.134 2.127-7.671 2.602-12.745.507-5.077.43-9.711.3-13.051a128 128 0 0 0-.231-3.957c-.067-.934-.087-1.454-.051-1.458s.124.507.253 1.438c.137.929.272 2.282.397 3.957.225 3.348.361 8.008-.149 13.122-.478 5.11-1.536 9.685-2.775 12.822-.602 1.575-1.223 2.796-1.698 3.607-.494.803-.78 1.235-.811 1.216m-148.593-37.06c.034.011-.081.52-.317 1.427a24 24 0 0 0-.399 1.66c-.136.651-.326 1.385-.45 2.213-.313 1.643-.556 3.623-.703 5.827a53 53 0 0 0 .102 7.179 53 53 0 0 0 1.164 7.087c.532 2.144 1.121 4.05 1.718 5.613.268.793.584 1.482.833 2.099.244.62.484 1.14.685 1.563.392.851.595 1.332.563 1.349s-.295-.431-.745-1.259c-.23-.411-.498-.922-.769-1.534-.276-.61-.618-1.293-.91-2.085-.646-1.559-1.277-3.47-1.841-5.631a49 49 0 0 1-1.217-7.155 49.4 49.4 0 0 1-.062-7.256c.174-2.225.459-4.219.82-5.866.149-.83.365-1.564.529-2.212.159-.65.333-1.2.487-1.646.297-.897.477-1.385.512-1.373m4.533 92.484q.006-.012.386.113l1.114.379 4.265 1.504 3.076 1.098c1.132.378 2.381.735 3.712 1.149 2.672.794 5.679 1.821 9.097 2.625l5.334 1.368c1.857.467 3.821.815 5.836 1.253 4.023.924 8.388 1.552 12.965 2.293 9.189 1.248 19.366 2.105 30.073 2.151 10.711-.044 20.89-.899 30.081-2.146 4.579-.741 8.944-1.368 12.967-2.291 2.015-.437 3.979-.785 5.836-1.252l5.334-1.368c3.418-.804 6.425-1.83 9.097-2.624 1.331-.414 2.579-.77 3.712-1.149l3.076-1.098 4.264-1.503 1.114-.379q.38-.125.386-.112.003.013-.367.162l-1.096.427-4.234 1.596-3.065 1.142c-1.129.393-2.375.763-3.703 1.191-2.668.821-5.672 1.874-9.09 2.702l-5.336 1.403c-1.858.478-3.824.837-5.841 1.284-4.028.944-8.4 1.588-12.987 2.344-9.208 1.276-19.412 2.147-30.149 2.191-10.733-.046-20.935-.919-30.141-2.197-4.586-.756-8.958-1.401-12.986-2.345-2.018-.447-3.983-.806-5.841-1.285l-5.336-1.404c-3.418-.828-6.422-1.882-9.09-2.703-1.328-.428-2.574-.799-3.703-1.192l-3.065-1.142-4.234-1.597-1.096-.427c-.244-.098-.369-.153-.365-.161"/><path d="M108.964 287.744s8.691-18.026 75.807-18.791 75.807 18.791 75.807 18.791-67.701 33.39-151.614 0" style="opacity:.3"/><path style="fill:#fff" d="M170.174 146.316q0 .013-.231.039l-.678.061c-.595.062-1.478.08-2.605.216-2.259.205-5.521.65-9.469 1.569-3.948.913-8.566 2.392-13.427 4.645-4.86 2.244-9.93 5.321-14.711 9.236-4.752 3.953-8.736 8.348-11.862 12.694-3.134 4.346-5.463 8.6-7.108 12.303-1.652 3.702-2.707 6.819-3.337 8.999-.347 1.081-.533 1.944-.706 2.517l-.189.654q-.069.221-.082.219-.013-.004.03-.231l.139-.667c.141-.581.295-1.454.613-2.547.572-2.203 1.578-5.351 3.196-9.093 1.611-3.742 3.921-8.042 7.055-12.433 3.126-4.392 7.13-8.832 11.921-12.816 4.82-3.946 9.937-7.034 14.842-9.27 4.906-2.244 9.566-3.696 13.545-4.568 3.98-.878 7.263-1.269 9.534-1.413 1.133-.105 2.02-.091 2.618-.119l.681-.01q.23.001.231.015m-62.778 76.98c-.06.025-.447-.722-.912-1.997-.466-1.273-.982-3.085-1.305-5.134-.319-2.05-.382-3.934-.328-5.288.053-1.356.193-2.185.258-2.18.164.007-.063 3.347.585 7.387.618 4.044 1.855 7.155 1.702 7.212m-16.828-5.167c-.025.021-.227-.162-.541-.539a9.8 9.8 0 0 1-1.131-1.747c-.816-1.549-1.524-4.011-1.167-6.721.362-2.71 1.688-4.903 2.879-6.186a9.8 9.8 0 0 1 1.547-1.392c.402-.282.645-.406.663-.38.058.075-.843.685-1.931 2.012-1.085 1.306-2.297 3.43-2.642 6.014-.34 2.583.275 4.95.982 6.494.705 1.563 1.416 2.388 1.341 2.445m91.446-103.946c-.022.098-.913-.23-2.353-.058-1.404.147-3.423.957-4.621 2.796-1.174 1.855-1.069 4.028-.619 5.366.443 1.382 1.112 2.055 1.032 2.116-.022.021-.208-.123-.483-.443-.277-.319-.617-.84-.896-1.55-.566-1.381-.761-3.728.528-5.77 1.32-2.021 3.534-2.821 5.026-2.881.762-.041 1.377.051 1.782.17.406.116.614.225.604.254M269.162 206c-.109.118-1.665-1.367-4.015-2.492-2.339-1.15-4.468-1.453-4.443-1.611-.004-.128 2.234-.051 4.67 1.143 2.445 1.173 3.892 2.883 3.788 2.96M132.043 381.069q-.012.006-.127-.193l-.327-.59-1.214-2.293-.861-1.666-.94-2.024c-.681-1.45-1.447-3.105-2.191-4.979l-1.201-2.927-1.191-3.217c-.859-2.211-1.587-4.638-2.445-7.162a226 226 0 0 1-4.455-16.753c-1.321-6.009-2.333-11.784-3.13-17.053-.736-5.278-1.319-10.042-1.639-14.06a154 154 0 0 1-.412-5.421 102 102 0 0 1-.219-4.099l-.086-2.592-.009-.675q.001-.229.015-.23.014 0 .039.228l.061.672.183 2.586c.064 1.124.168 2.496.308 4.089.128 1.593.27 3.408.488 5.408.366 4.007.986 8.759 1.747 14.023.821 5.255 1.846 11.015 3.163 17.01a241 241 0 0 0 4.405 16.723c.843 2.52 1.553 4.947 2.393 7.158l1.159 3.219 1.167 2.932c.72 1.879 1.461 3.539 2.115 4.997l.899 2.038.819 1.683 1.126 2.335.281.614q.09.212.079.219M92.87 299.544c-.01.143-3.282.027-7.307-.259s-7.281-.636-7.271-.779 3.281-.027 7.308.26c4.025.286 7.281.635 7.27.778m-37.62-21.351c-.126.069-1.83-2.832-3.806-6.478s-3.475-6.658-3.348-6.727c.126-.068 1.83 2.832 3.806 6.479 1.975 3.646 3.474 6.658 3.348 6.726m112.251 134.406c-.006.035-.422-.017-1.172-.143-.751-.114-1.824-.367-3.127-.755-1.307-.38-2.825-.958-4.46-1.714a37 37 0 0 1-5.062-2.941 37 37 0 0 1-4.482-3.769c-1.265-1.283-2.322-2.516-3.122-3.617-.806-1.095-1.407-2.019-1.769-2.687-.372-.663-.562-1.036-.531-1.054.085-.051.921 1.405 2.591 3.517.828 1.061 1.901 2.253 3.167 3.5a40 40 0 0 0 4.445 3.685 40 40 0 0 0 4.97 2.935c1.601.769 3.086 1.375 4.365 1.795 2.553.857 4.206 1.151 4.187 1.248m15.341-46.263c.001.018-.24.042-.701.072-.461.009-1.143.11-2.02.058-1.755-.004-4.313-.286-7.333-1.19-1.512-.443-3.112-1.105-4.776-1.921-1.63-.878-3.346-1.888-4.966-3.207-3.273-2.575-6.311-6.189-8.272-10.61-1.893-4.453-2.459-9.141-2.106-13.291.143-2.085.577-4.028 1.048-5.819.539-1.773 1.148-3.394 1.857-4.801 1.401-2.823 2.942-4.884 4.137-6.169.561-.677 1.101-1.106 1.422-1.436.336-.317.518-.476.531-.463.04.04-.665.709-1.799 2.032-1.14 1.316-2.617 3.389-3.958 6.196-.679 1.399-1.259 3.006-1.773 4.759-.446 1.77-.858 3.686-.985 5.739-.322 4.087.252 8.684 2.105 13.047 1.922 4.331 4.889 7.888 8.094 10.443 1.586 1.308 3.268 2.315 4.865 3.198 1.631.821 3.201 1.494 4.687 1.954 2.967.936 5.489 1.272 7.23 1.338 1.74.073 2.711.015 2.713.071m-121.07-78.749c-.042.084-.773-.289-2.035-.576-1.256-.293-3.07-.404-4.988.05-1.916.465-3.482 1.388-4.469 2.219-.994.828-1.477 1.492-1.552 1.436-.043-.024.337-.777 1.308-1.712.959-.935 2.581-1.963 4.591-2.449 2.011-.478 3.923-.297 5.202.1 1.289.392 1.97.891 1.943.932m147.664-99.428c0 .144-12.278.26-27.42.26-15.148 0-27.423-.117-27.423-.26s12.275-.26 27.423-.26c15.142-.001 27.42.116 27.42.26m-46.792 62.527c.001.018-.158.043-.464.075l-1.338.115c-.581.05-1.293.096-2.122.109-.828.018-1.772.065-2.815.033-2.087-.005-4.571-.148-7.316-.439a81 81 0 0 1-8.846-1.526 81 81 0 0 1-8.6-2.583c-2.587-.965-4.874-1.945-6.743-2.872-.948-.436-1.771-.9-2.504-1.285a30 30 0 0 1-1.85-1.044l-1.146-.7c-.259-.165-.39-.259-.381-.274s.158.048.434.184l1.191.613c.512.276 1.14.608 1.886.963.743.359 1.574.798 2.527 1.211 1.881.88 4.169 1.819 6.749 2.753a88 88 0 0 0 8.556 2.527 88 88 0 0 0 8.782 1.556c2.725.315 5.192.495 7.268.548 1.037.056 1.977.034 2.802.044.826.015 1.536-.002 2.117-.02l1.34-.017c.31.001.472.011.473.029m79.822 45.068q.003.013-.239.109l-.719.27-2.782.99a76 76 0 0 1-4.44 1.456c-1.745.523-3.717 1.174-5.943 1.729l-3.481.921c-1.212.315-2.489.575-3.803.88-2.623.636-5.463 1.135-8.444 1.698-5.982 1.009-12.606 1.854-19.595 2.306-6.994.407-13.674.38-19.735.11-3.028-.193-5.908-.342-8.589-.651-1.341-.142-2.641-.244-3.882-.408l-3.568-.487c-2.277-.278-4.314-.684-6.11-.989a76 76 0 0 1-4.584-.902l-2.882-.642-.746-.18q-.252-.065-.25-.079.004-.014.262.027l.757.129 2.899.546c1.256.253 2.794.546 4.594.814 1.798.277 3.834.657 6.11.911l3.564.453c1.24.154 2.537.244 3.876.377 2.677.29 5.55.422 8.571.602 6.046.243 12.706.256 19.68-.15 6.969-.451 13.576-1.279 19.546-2.259 2.975-.548 5.811-1.03 8.432-1.646 1.313-.296 2.589-.545 3.801-.849l3.482-.886c2.228-.531 4.203-1.157 5.953-1.652a90 90 0 0 0 4.461-1.37l2.811-.896.736-.221q.252-.073.257-.061"/></svg>